# xmcd
#
# Track frame offsets:
# 150
# 13426
# 27527
# 45677
# 74478
# 87679
# 104631
# 124132
# 135157
# 153383
# 173328
# 187350
#
# Disc length: 2741 seconds
#
#
# Revision: 0
# Processed by: cddbd v1.5.2PL0 Copyright (c) Steve Scherf et al.
# Submitted via: Nero 7, 11, 10, 0 
#
DISCID=af0ab30c
DTITLE=Dr. B's Blues Dropouts - Salon Stomp
DYEAR=2003
DGENRE=Blues
TTITLE0=Hands Off!
TTITLE1=My Baby
TTITLE2=Bleak City Blues
TTITLE3=One Foot In The Blues
TTITLE4=Peruvian Way
TTITLE5=Why Did You Lie?
TTITLE6=Love Won't Stay
TTITLE7=That's How You Got Killed Before
TTITLE8=Junkyard Rhumba
TTITLE9=I Can't Believe That You're In Love With Me
TTITLE10=Mary Jane
TTITLE11=No One
EXTD=
EXTT0=Hands Off!
EXTT1=My Baby
EXTT2=Bleak City Blues
EXTT3=One Foot In The Blues
EXTT4=Peruvian Way
EXTT5=Why Did You Lie?
EXTT6=Love Won't Stay
EXTT7=That's How You Got Killed Before
EXTT8=Junkyard Rhumba
EXTT9=I Can't Believe That You're In Love With Me
EXTT10=Mary Jane
EXTT11=No One
PLAYORDER=
